PathFileType  4	(X/Y/Z) C:\Users\antoi\Documents\MyRepositories\mobilecap\ResultsAnalysis
DataRate	CameraRate	NumFrames	NumMarkers	Units	OrigDataRate	OrigDataStartFrame	OrigNumFrames
100.0	100.0	4	55	mm	100.0	251	501
Frame#	Time	r_knee			r_shank_antsup			r_ankle			r_calc			r_5meta			r_toe			L_knee			L_shank_antsup			L_ankle			L_calc			L_5meta			L_toe			r_mknee			r_mankle			L_mknee			L_mankle			r_sh2			r_sh3			r_sh4			L_sh2			L_sh3			r_thigh1			r_thigh2			r_thigh3			r_thigh4			r_thigh5			L_thigh1			L_thigh2			L_thigh3			L_thigh4			r.ASIS			r.PSIS			L.ASIS			L.PSIS			C7			R_Shoulder			L_Shoulder			R_Sternum			L_Sternum			R_humerus			R_elbow_med			R_elbow_lat			R_forearm			R_wrist_radius			R_wrist_ulna			L_humerus			L_elbow_med			L_elbow_lat			L_forearm			L_wrist_radius			L_wrist_ulna			R_HJC			L_HJC			R_HJC_reg			L_HJC_reg			
		X1	Y1	Z1	X2	Y2	Z2	X3	Y3	Z3	X4	Y4	Z4	X5	Y5	Z5	X6	Y6	Z6	X7	Y7	Z7	X8	Y8	Z8	X9	Y9	Z9	X10	Y10	Z10	X11	Y11	Z11	X12	Y12	Z12	X13	Y13	Z13	X14	Y14	Z14	X15	Y15	Z15	X16	Y16	Z16	X17	Y17	Z17	X18	Y18	Z18	X19	Y19	Z19	X20	Y20	Z20	X21	Y21	Z21	X22	Y22	Z22	X23	Y23	Z23	X24	Y24	Z24	X25	Y25	Z25	X26	Y26	Z26	X27	Y27	Z27	X28	Y28	Z28	X29	Y29	Z29	X30	Y30	Z30	X31	Y31	Z31	X32	Y32	Z32	X33	Y33	Z33	X34	Y34	Z34	X35	Y35	Z35	X36	Y36	Z36	X37	Y37	Z37	X38	Y38	Z38	X39	Y39	Z39	X40	Y40	Z40	X41	Y41	Z41	X42	Y42	Z42	X43	Y43	Z43	X44	Y44	Z44	X45	Y45	Z45	X46	Y46	Z46	X47	Y47	Z47	X48	Y48	Z48	X49	Y49	Z49	X50	Y50	Z50	X51	Y51	Z51	X52	Y52	Z52	X53	Y53	Z53	X54	Y54	Z54	X55	Y55	Z55	

251	2.50000000	-255.15822	475.28163	-420.99892	-232.07096	421.90807	-413.63075	-256.39671	86.90089	-387.72101	-308.39337	53.86243	-429.85741	-147.38841	42.61017	-354.13267	-109.19180	60.64620	-406.82560	-229.44943	473.29750	-774.47563	-200.37949	392.86811	-771.58195	-251.93005	94.67133	-816.16038	-308.71477	50.50204	-779.30646	-147.70642	44.99775	-846.24555	-101.27581	59.43767	-789.91003	-248.93983	448.03018	-548.25775	-240.12428	96.92643	-466.22025	-237.34488	448.12383	-647.58025	-240.81970	97.08968	-736.00938	-240.75687	311.49556	-389.74753	-304.91366	433.82412	-394.46210	-320.89364	316.92348	-378.87547	-277.52403	416.91730	-815.05727	-284.62721	296.02579	-837.56971	-160.70974	721.45749	-397.80317	-170.64616	608.02310	-406.76337	-234.40251	589.29716	-397.35178	-273.47709	727.37434	-409.72067	-279.11255	610.63654	-421.02762	-138.23919	747.88851	-793.08403	-143.94813	607.71288	-773.72913	-249.07909	748.70060	-809.59362	-257.34189	613.83025	-781.29845	-102.28914	919.35158	-480.71868	-309.93327	943.22724	-565.41967	-94.17811	925.75601	-705.19067	-304.66762	946.39566	-644.52810	-260.17717	1384.83306	-593.69338	-211.32557	1357.72760	-450.39162	-217.30415	1358.61900	-732.29571	-132.02003	1329.75759	-569.10736	-132.36353	1329.20762	-609.23794	-186.80156	1247.95794	-385.50835	-255.57154	1039.23102	-395.02003	-235.51454	1055.01059	-337.56811	-179.12937	993.27072	-296.30967	-139.21038	854.92997	-262.83978	-175.24532	852.84506	-248.37542	-212.08897	1260.64456	-808.61778	-245.35225	1039.13086	-797.23823	-235.94665	1064.20315	-855.78645	-178.36708	984.55387	-898.33901	-132.66758	864.31652	-917.90720	-169.91810	859.50364	-934.58668	-181.50968	829.48038	-494.89132	-172.63111	837.91299	-702.03716	-171.14962	847.37004	-519.11980	-161.30747	853.29216	-666.98272	
252	2.51000000	-255.15267	475.27841	-420.99968	-232.02918	421.91173	-413.58781	-256.42882	86.81703	-387.81381	-308.38479	53.87673	-429.83875	-147.39099	42.59752	-354.13658	-109.18335	60.64315	-406.79641	-229.38169	473.31186	-774.41772	-200.33826	392.85865	-771.54005	-251.92275	94.68030	-816.14033	-308.69838	50.49543	-779.25282	-147.71032	45.03054	-846.25727	-101.27420	59.44865	-789.90041	-248.94479	448.02815	-548.26700	-240.14905	96.92287	-466.12013	-237.28507	447.94800	-647.57374	-240.80516	97.09698	-736.00995	-240.73632	311.53152	-389.76853	-305.03809	433.34150	-394.45513	-320.89309	316.90540	-378.84477	-277.46538	416.95154	-815.05458	-284.58001	296.02809	-837.54979	-160.66365	721.49527	-397.75931	-170.66214	607.98350	-406.74816	-234.39332	589.28997	-397.37879	-273.43951	727.39415	-409.65680	-279.05805	610.69293	-420.99199	-138.14756	747.84056	-792.97157	-143.88620	607.71049	-773.69550	-248.93531	748.77180	-809.61092	-257.24315	613.93890	-781.36335	-102.04783	919.30504	-480.59741	-309.84639	943.21512	-565.35355	-94.09418	925.74916	-705.12069	-304.64428	946.44640	-644.54623	-260.12472	1384.82409	-593.80112	-211.30552	1357.74769	-450.39302	-217.26047	1358.63618	-732.30506	-131.97550	1329.79615	-569.08845	-132.30652	1329.21479	-609.20898	-186.75557	1247.99218	-385.52644	-255.54725	1039.32030	-394.91293	-235.49694	1055.01121	-337.55266	-179.03798	993.34722	-296.19894	-139.13146	854.98323	-262.69886	-175.17486	852.88364	-248.26708	-212.03545	1260.65172	-808.59790	-245.29631	1039.12553	-797.23561	-235.85301	1064.20043	-855.80596	-178.25749	984.51898	-898.25587	-132.50530	864.30313	-917.79493	-169.77361	859.48047	-934.46287	-181.40625	829.45575	-494.85136	-172.54449	837.92292	-701.99651	-170.93622	847.26051	-519.00378	-161.22085	853.29514	-666.90146	
253	2.52000000	-255.13895	475.30666	-421.00934	-232.02483	421.91356	-413.53214	-256.41787	86.80304	-387.81015	-308.38999	53.86909	-429.82318	-147.38809	42.59735	-354.13127	-109.18165	60.64459	-406.79128	-229.33205	473.31959	-774.41369	-200.30127	392.84646	-771.49502	-251.90699	94.66142	-816.10847	-308.70583	50.47620	-779.21088	-147.69743	45.02484	-846.23441	-101.26534	59.44752	-789.88607	-248.94020	448.02868	-548.26291	-240.18475	96.87716	-465.93453	-237.16456	447.89288	-647.51698	-240.80762	97.10443	-736.00730	-240.77437	311.51294	-389.78064	-304.93964	433.21064	-394.43042	-320.87542	316.88607	-378.80270	-277.42236	416.96598	-815.01917	-284.52875	296.00491	-837.53963	-160.61797	721.50798	-397.73009	-170.64327	607.92910	-406.71268	-234.34242	589.32333	-397.35016	-273.40236	727.42248	-409.62669	-278.98206	610.75946	-420.95388	-138.02830	747.72952	-792.85642	-143.79875	607.68734	-773.71429	-248.83783	748.79105	-809.58869	-257.14680	613.95986	-781.27983	-101.87508	919.27656	-480.53520	-309.76359	943.21268	-565.33082	-93.99063	925.74215	-705.02423	-304.57878	946.47166	-644.53647	-260.06752	1384.82076	-593.89874	-211.28752	1357.79131	-450.34304	-217.21619	1358.64188	-732.30766	-131.93454	1329.82125	-569.08579	-132.25920	1329.21761	-609.22494	-186.74529	1247.98302	-385.52258	-255.65597	1039.37309	-394.83806	-235.46854	1055.03588	-337.51333	-178.96798	993.40184	-296.11317	-139.06711	855.03824	-262.59945	-175.09055	852.95920	-248.12904	-211.98235	1260.65017	-808.55742	-245.21079	1039.10924	-797.17749	-235.74199	1064.20807	-855.86966	-178.13975	984.41955	-898.05084	-132.35187	864.27276	-917.70378	-169.62257	859.44378	-934.35700	-181.31600	829.44097	-494.81197	-172.44082	837.92657	-701.95578	-170.79128	847.22580	-518.94580	-161.11140	853.31024	-666.81997	
254	2.53000000	-255.11700	475.32892	-421.00006	-232.05256	421.90231	-413.49942	-256.35276	86.89904	-387.70416	-308.37910	53.88938	-429.85056	-147.37872	42.59880	-354.11631	-109.18198	60.65673	-406.79689	-229.28793	473.30427	-774.40443	-200.26309	392.83957	-771.47862	-251.90363	94.65204	-816.10739	-308.73632	50.47408	-779.21558	-147.68529	45.00505	-846.21594	-101.25626	59.44036	-789.86867	-248.93115	448.03081	-548.25384	-240.18320	96.85178	-465.88674	-237.00271	447.94936	-647.50276	-240.81404	97.10456	-736.00863	-240.73846	311.51487	-389.77937	-304.42176	433.92027	-394.30351	-320.84584	316.87925	-378.77419	-277.38592	416.95789	-815.00357	-284.49512	296.01334	-837.54980	-160.53351	721.35175	-397.73371	-170.55352	607.93272	-406.65955	-234.18890	589.30287	-397.28769	-273.31679	727.44441	-409.56708	-278.94415	610.76840	-420.93125	-137.95163	747.62000	-792.81730	-143.69669	607.65930	-773.76703	-248.78417	748.77444	-809.57175	-257.06264	613.88592	-781.06852	-101.80121	919.25134	-480.52692	-309.72736	943.25277	-565.39264	-93.88078	925.73399	-704.95587	-304.48019	946.45031	-644.48451	-260.03294	1384.82552	-593.96372	-211.24981	1357.84499	-450.25760	-217.16118	1358.61861	-732.26948	-131.89259	1329.83305	-569.09128	-132.22367	1329.21771	-609.25041	-186.74562	1247.96809	-385.47506	-255.69886	1039.43696	-394.79035	-235.39910	1055.06228	-337.44081	-178.91388	993.44905	-296.03329	-139.01218	855.11733	-262.50162	-174.98284	853.07546	-248.00837	-211.93478	1260.61228	-808.50348	-245.10219	1039.08238	-797.09991	-235.62846	1064.21875	-855.91995	-178.00655	984.32516	-897.87190	-132.20792	864.24727	-917.67694	-169.46985	859.39870	-934.29788	-181.27063	829.43477	-494.79083	-172.34952	837.91971	-701.93270	-170.80926	847.31944	-518.93756	-161.00163	853.29593	-666.76911	
